<?xml version="1.0" standalone="no"?>
<!DOCTYPE svg PUBLIC "-//W3C//DTD SVG 20010904//EN"
 "http://www.w3.org/TR/2001/REC-SVG-20010904/DTD/svg10.dtd">
<svg version="1.0" xmlns="http://www.w3.org/2000/svg"
 width="6431.000000pt" height="4862.000000pt" viewBox="0 0 6431.000000 4862.000000"
 preserveAspectRatio="xMidYMid meet">

<g transform="translate(0.000000,4862.000000) scale(0.100000,-0.100000)"
fill="#000000" stroke="none">
<path d="M28115 26799 c-186 -23 -342 -75 -468 -159 -205 -135 -332 -373 -398
-745 -18 -98 -22 -173 -26 -412 l-5 -293 -214 0 -214 0 0 -385 0 -385 213 -2
212 -3 3 -1367 2 -1368 435 0 435 0 2 1368 3 1367 278 3 277 2 0 385 0 385
-280 0 -280 0 0 163 c0 492 92 627 435 644 154 8 341 -22 458 -72 16 -7 17 16
17 397 l0 405 -97 22 c-54 12 -143 28 -198 37 -122 18 -481 26 -590 13z"/>
<path d="M32100 26265 l0 -455 455 0 455 0 0 455 0 455 -455 0 -455 0 0 -455z"/>
<path d="M33800 24200 l0 -2520 450 0 450 0 2 779 3 779 698 -779 698 -779
525 0 524 0 -801 883 c-441 485 -810 891 -820 902 -17 20 1 41 700 870 l718
850 -511 3 -511 3 -25 -28 c-14 -16 -288 -347 -610 -738 l-585 -709 -3 1502
-2 1502 -450 0 -450 0 0 -2520z"/>
<path d="M53840 24200 l0 -2520 440 0 440 0 0 1310 0 1310 38 24 c64 40 213
112 290 140 188 67 438 87 595 47 233 -60 407 -240 480 -498 22 -78 22 -79 25
-1205 l3 -1128 434 0 435 0 0 1178 c0 989 -3 1194 -15 1282 -97 681 -575 1114
-1265 1147 -331 15 -703 -80 -941 -240 l-66 -45 -7 97 c-3 53 -6 439 -6 859
l0 762 -440 0 -440 0 0 -2520z"/>
<path d="M23596 26468 c-18 -40 -533 -1131 -1145 -2425 -611 -1293 -1111
-2354 -1111 -2357 0 -3 233 -6 518 -6 l517 1 225 482 226 482 1179 0 1180 0
222 -480 222 -480 520 -3 520 -2 -27 59 c-15 32 -531 1125 -1147 2429 l-1120
2372 -373 0 -373 0 -33 -72z m814 -2163 c216 -467 395 -856 397 -862 4 -10
-161 -13 -806 -13 -446 0 -811 3 -811 6 0 3 167 362 371 797 205 436 387 825
406 866 19 42 38 70 42 65 5 -5 185 -391 401 -859z"/>
<path d="M42410 24110 l0 -2430 470 0 470 0 2 1071 3 1070 968 -1070 968
-1071 614 0 c338 0 615 2 615 5 0 2 -507 559 -1126 1236 l-1126 1232 40 41
c22 22 497 541 1057 1151 560 611 1036 1129 1059 1153 l40 42 -565 0 -564 0
-990 -1081 -990 -1080 -3 1080 -2 1081 -470 0 -470 0 0 -2430z"/>
<path d="M30720 25260 c-41 -10 -97 -28 -125 -41 -129 -56 -291 -190 -401
-330 l-49 -62 -3 182 -2 181 -435 0 -435 0 0 -1755 0 -1755 435 0 435 0 0
1018 c0 631 4 1050 10 1102 40 334 244 585 511 630 173 29 357 -56 584 -271
44 -42 79 -68 84 -63 16 17 461 725 461 734 0 5 -35 41 -77 80 -214 197 -415
313 -615 354 -105 22 -281 20 -378 -4z"/>
<path d="M38565 25273 c-422 -52 -793 -208 -1103 -467 l-93 -77 200 -207 c110
-114 226 -233 259 -265 l60 -59 81 64 c223 177 468 257 746 245 248 -11 396
-68 532 -202 64 -63 91 -99 118 -156 39 -84 62 -167 68 -251 l4 -58 -261 0
c-630 -1 -959 -56 -1279 -216 -248 -124 -456 -333 -548 -553 -58 -137 -73
-228 -73 -421 0 -125 5 -195 17 -245 73 -319 259 -557 542 -696 184 -90 328
-119 595 -119 358 0 668 73 901 211 45 27 86 49 91 49 4 0 8 -38 8 -85 l0 -85
440 0 440 0 0 958 c0 526 -5 1046 -10 1154 -21 410 -89 652 -252 890 -224 327
-582 532 -1028 587 -78 10 -386 13 -455 4z m865 -2397 l0 -325 -142 -70 c-165
-81 -262 -115 -401 -142 -114 -22 -293 -26 -377 -8 -140 29 -273 126 -328 238
-24 50 -27 67 -27 161 0 96 2 110 29 160 75 143 252 246 491 285 132 22 134
22 458 23 l297 2 0 -324z"/>
<path d="M48050 25270 c-500 -69 -973 -343 -1261 -732 -177 -239 -288 -497
-340 -793 -27 -156 -30 -438 -5 -597 107 -684 591 -1250 1256 -1468 194 -64
305 -82 547 -87 426 -10 739 54 1079 222 127 63 413 239 428 264 3 4 -120 132
-272 284 l-277 277 -74 -56 c-133 -99 -340 -186 -537 -223 -278 -53 -498 -29
-719 78 -227 111 -390 286 -496 532 -22 49 -39 94 -39 99 0 7 490 10 1404 10
l1403 0 12 108 c21 208 23 268 11 402 -22 264 -69 438 -175 655 -130 268 -296
469 -529 646 -242 183 -525 306 -838 365 -97 19 -477 28 -578 14z m505 -784
c231 -69 432 -219 570 -425 48 -72 125 -237 125 -266 0 -13 -117 -15 -956 -15
l-955 0 7 23 c34 111 103 239 183 339 160 202 362 322 621 372 14 2 90 3 170
1 121 -2 160 -7 235 -29z"/>
<path d="M51765 25274 c-385 -57 -670 -186 -880 -399 -202 -205 -300 -460
-281 -735 18 -269 130 -488 348 -677 182 -158 412 -272 771 -383 512 -157 701
-282 701 -465 0 -181 -183 -295 -474 -296 -65 0 -146 7 -187 15 -216 46 -415
170 -587 365 l-38 44 -264 -264 c-145 -145 -264 -268 -264 -274 0 -18 141
-172 220 -240 308 -267 713 -399 1174 -382 646 23 1176 384 1276 868 24 113
26 285 6 391 -64 335 -333 619 -776 818 -52 23 -207 80 -345 125 -359 119
-517 191 -604 275 -177 172 -55 392 261 472 105 26 283 21 396 -11 156 -45
321 -151 461 -295 40 -42 76 -76 80 -76 6 0 258 253 445 447 l80 82 -95 97
c-249 255 -524 406 -866 475 -86 17 -151 22 -318 24 -115 2 -223 1 -240 -1z"/>
<path d="M59200 25269 c-467 -60 -916 -307 -1203 -662 -194 -239 -331 -521
-386 -795 -134 -658 86 -1329 578 -1759 271 -237 615 -395 972 -447 136 -20
429 -21 566 -1 622 88 1155 472 1418 1020 87 182 142 369 166 567 18 149 7
477 -20 612 -78 386 -285 753 -563 996 -287 251 -647 416 -1017 465 -115 16
-404 18 -511 4z m500 -798 c383 -111 672 -453 735 -871 80 -526 -226 -1041
-710 -1193 -222 -70 -460 -53 -673 48 -123 59 -199 114 -300 219 -214 223
-313 491 -299 810 20 492 345 895 807 1002 88 21 347 12 440 -15z"/>
<path d="M32110 23440 l0 -1760 445 0 445 0 0 1760 0 1760 -445 0 -445 0 0
-1760z"/>
<path d="M12615 18859 c-637 -24 -1294 -76 -1885 -150 -2620 -324 -4967 -1115
-6656 -2244 -328 -219 -592 -420 -869 -660 -140 -122 -389 -359 -370 -353 6 2
132 65 280 139 1436 724 3196 1284 5169 1644 193 35 354 61 358 57 13 -13 -68
-358 -137 -586 -121 -400 -320 -735 -550 -929 -121 -102 -227 -165 -564 -337
-535 -273 -779 -438 -1056 -715 -408 -408 -624 -937 -575 -1406 41 -388 261
-718 655 -981 138 -92 405 -226 581 -292 119 -43 394 -127 417 -125 7 0 -55
24 -138 53 -747 261 -1219 656 -1356 1134 -68 238 -35 544 88 826 177 403 506
737 1008 1021 148 84 207 111 511 235 431 176 606 277 808 470 251 240 450
571 616 1028 66 182 130 387 171 550 18 70 36 131 40 136 4 4 96 21 206 36
182 26 200 27 223 12 43 -27 598 -444 776 -583 352 -275 663 -552 923 -821
l104 -108 -49 -57 c-73 -86 -281 -304 -344 -360 -210 -190 -529 -411 -751
-520 -157 -78 -252 -113 -614 -229 -322 -103 -528 -197 -760 -349 -484 -318
-805 -768 -916 -1286 -32 -148 -33 -432 -2 -565 56 -240 147 -403 295 -530 53
-46 176 -124 194 -124 5 0 -14 14 -43 30 -69 39 -174 139 -229 216 -57 80 -97
169 -131 291 -24 90 -27 114 -27 288 -1 150 3 208 18 275 120 547 495 1003
1054 1284 181 91 354 149 727 245 443 113 578 161 815 288 344 184 615 382
938 686 51 48 96 87 100 87 8 0 143 -186 229 -315 73 -110 172 -277 243 -410
29 -55 70 -132 91 -170 l38 -71 -131 -149 c-696 -795 -1091 -1489 -1113 -1955
-4 -81 -4 -82 5 -26 62 383 347 865 824 1391 126 139 439 457 487 496 l37 29
67 -123 c145 -262 333 -532 458 -659 173 -176 430 -291 732 -328 139 -18 537
-17 800 0 l220 15 -275 6 c-576 14 -865 63 -1098 189 -259 140 -428 373 -672
925 l-62 140 34 30 c19 16 88 77 154 135 291 257 589 497 946 763 259 194 347
279 449 431 145 215 219 441 250 763 13 134 7 598 -10 783 -6 63 -13 134 -15
158 l-4 42 78 0 c42 0 131 -3 198 -7 l122 -6 82 -101 c260 -320 647 -625 1268
-1001 107 -65 197 -120 198 -121 2 -1 -30 -44 -71 -96 -143 -179 -227 -327
-279 -493 -28 -91 -31 -115 -35 -270 -8 -276 33 -432 212 -807 182 -379 204
-447 212 -639 6 -144 -9 -244 -58 -369 -63 -164 -205 -368 -398 -572 -61 -65
-111 -120 -111 -124 0 -10 235 203 306 279 279 293 384 523 384 839 0 194 -18
266 -185 718 -71 192 -100 305 -114 440 -21 212 23 408 128 565 63 96 203 258
268 311 l44 36 113 -71 c552 -344 832 -601 957 -877 18 -38 55 -163 84 -279
73 -287 105 -364 235 -558 283 -423 849 -776 1579 -983 67 -19 127 -34 132
-32 5 2 -61 29 -146 61 -634 236 -1150 604 -1392 992 -106 170 -153 305 -198
572 -41 242 -67 328 -142 475 -137 266 -377 515 -827 858 l-109 83 24 20 c13
11 116 85 229 165 337 239 648 466 770 562 110 86 117 90 155 84 22 -3 156
-25 297 -50 1767 -305 3385 -776 4774 -1389 121 -53 370 -171 554 -263 184
-92 340 -168 345 -170 17 -5 -203 204 -350 333 -1417 1246 -3579 2198 -6130
2699 -1071 210 -2157 332 -3345 376 -302 11 -1296 11 -1595 -1z m1170 -1179
c10 -16 95 -551 110 -697 36 -345 7 -588 -95 -798 -68 -142 -137 -223 -328
-391 -258 -226 -514 -468 -781 -738 -134 -136 -245 -246 -246 -244 -2 2 -44
94 -94 205 -137 306 -224 469 -378 706 -35 55 -65 102 -66 106 -1 4 52 72 117
151 392 470 739 1001 1038 1586 l63 124 327 0 c196 0 329 -4 333 -10z m-1339
-82 c-165 -360 -368 -732 -574 -1048 -107 -166 -233 -341 -242 -338 -4 2 -42
46 -85 98 -277 336 -689 750 -1149 1157 -33 29 -57 55 -54 58 7 7 578 59 923
84 419 30 911 56 1117 59 l97 2 -33 -72z m3349 -3 c521 -40 1556 -153 1575
-171 7 -8 -48 -57 -350 -314 -140 -119 -297 -256 -349 -303 -52 -47 -99 -83
-105 -80 -64 39 -480 345 -606 447 -183 147 -480 418 -480 438 0 5 24 7 58 3
31 -3 147 -12 257 -20z"/>
</g>
</svg>
